<?xml version="1.0" encoding="UTF-8"?>
<svg viewBox="0 0 256 256" xmlns="http://www.w3.org/2000/svg">
  <!-- EmmaNeigh App Icon - Simplified prancing horse for small sizes -->

  <!-- White background circle for visibility -->
  <circle cx="128" cy="128" r="120" fill="#ffffff"/>

  <!-- Border ring -->
  <circle cx="128" cy="128" r="115" fill="none" stroke="#000000" stroke-width="3"/>

  <!-- Simplified Prancing Horse -->
  <g fill="#000000" transform="translate(128,128) scale(0.8) translate(-128,-128)">
    <!-- Body -->
    <ellipse cx="130" cy="145" rx="45" ry="28"/>

    <!-- Neck -->
    <path d="M 155 125 Q 175 95 185 65 Q 170 75 160 95 Q 150 115 150 125 Z"/>

    <!-- Head -->
    <ellipse cx="190" cy="58" rx="18" ry="12" transform="rotate(-15, 190, 58)"/>

    <!-- Ear -->
    <path d="M 195 48 L 205 30 L 200 50 Z"/>

    <!-- Eye -->
    <circle cx="198" cy="55" r="3" fill="#ffffff"/>

    <!-- Mane -->
    <path d="M 170 75 Q 155 65 150 85 Q 165 80 170 75 Z"/>
    <path d="M 158 95 Q 145 90 145 110 Q 155 105 158 95 Z"/>

    <!-- Front raised leg -->
    <path d="M 150 140 Q 165 155 175 175 Q 180 185 175 190 Q 168 188 165 180 Q 155 165 145 150 Q 145 142 150 140 Z"/>

    <!-- Front supporting leg -->
    <rect x="118" y="165" width="10" height="50" rx="4"/>
    <ellipse cx="123" cy="218" rx="8" ry="5"/>

    <!-- Back leg extended -->
    <path d="M 100 160 Q 85 185 80 215 Q 82 225 92 225 Q 100 222 102 210 Q 108 180 110 160 Z"/>
    <ellipse cx="87" cy="228" rx="8" ry="5"/>

    <!-- Back leg tucked -->
    <rect x="85" y="155" width="9" height="35" rx="4" transform="rotate(15, 90, 170)"/>

    <!-- Tail -->
    <path d="M 85 145 Q 55 140 45 170 Q 50 180 60 175 Q 75 160 85 150 Z"/>
    <path d="M 85 155 Q 65 165 60 190 Q 70 190 75 180 Q 82 168 85 158 Z"/>
  </g>
</svg>
