<?xml version="1.0" encoding="UTF-8"?>
<svg viewBox="0 0 512 512" xmlns="http://www.w3.org/2000/svg">
  <!-- EmmaNeigh Logo - Luxury Prancing Horse -->
  <!-- Inspired by Ferrari/Lamborghini aesthetic: sleek, powerful, minimalist -->

  <!-- Background (transparent for icon use) -->

  <!-- Prancing Horse - Rearing pose, elegant lines -->
  <g fill="#000000">
    <!-- Body - sleek, muscular -->
    <path d="M 280 340
             Q 320 330 340 290
             Q 355 250 340 210
             Q 330 180 300 170
             Q 270 165 240 180
             Q 200 200 180 240
             Q 160 280 170 320
             Q 180 360 220 380
             Q 260 395 280 340 Z"/>

    <!-- Neck - powerful, arched -->
    <path d="M 300 170
             Q 320 140 350 100
             Q 370 70 380 50
             Q 365 55 355 70
             Q 340 90 320 120
             Q 300 145 290 165
             Q 295 168 300 170 Z"/>

    <!-- Head - refined, noble -->
    <path d="M 380 50
             Q 400 35 420 40
             Q 440 45 445 60
             Q 448 75 440 85
             Q 430 95 410 95
             Q 390 92 375 80
             Q 365 68 370 55
             Q 375 48 380 50 Z"/>

    <!-- Ear - alert, pointed -->
    <path d="M 415 40
             L 425 15
             Q 430 20 428 35
             Q 425 42 415 40 Z"/>

    <!-- Eye - intelligent -->
    <circle cx="425" cy="60" r="5"/>

    <!-- Nostril -->
    <ellipse cx="443" cy="78" rx="3" ry="4"/>

    <!-- Mane - flowing, dynamic -->
    <path d="M 355 70
             Q 340 50 320 55
             Q 300 60 290 80
             Q 310 75 330 85
             Q 350 90 355 70 Z"/>
    <path d="M 330 100
             Q 315 85 295 95
             Q 280 105 275 125
             Q 295 115 315 120
             Q 335 125 330 100 Z"/>

    <!-- Front leg - raised, powerful (prancing) -->
    <path d="M 280 240
             Q 290 260 310 280
             Q 325 295 340 310
             Q 345 320 340 330
             Q 335 340 325 338
             Q 315 335 310 325
             Q 300 310 285 290
             Q 270 270 265 250
             Q 265 242 280 240 Z"/>

    <!-- Front leg - supporting -->
    <path d="M 240 280
             Q 235 320 230 360
             Q 228 400 235 440
             Q 238 460 250 465
             Q 262 468 268 458
             Q 275 445 272 420
             Q 268 380 265 340
             Q 262 300 260 280
             Q 250 275 240 280 Z"/>

    <!-- Hoof detail - front supporting -->
    <path d="M 248 465
             Q 240 475 245 485
             Q 255 490 270 485
             Q 278 478 270 468
             Q 260 462 248 465 Z"/>

    <!-- Back leg - extended back -->
    <path d="M 200 340
             Q 180 370 160 410
             Q 150 440 155 470
             Q 160 485 175 488
             Q 190 490 198 478
             Q 208 460 210 430
             Q 215 390 220 360
             Q 215 345 200 340 Z"/>

    <!-- Hoof detail - back -->
    <path d="M 172 488
             Q 162 495 165 505
             Q 175 512 192 508
             Q 202 500 195 490
             Q 185 485 172 488 Z"/>

    <!-- Back leg - tucked -->
    <path d="M 180 320
             Q 160 340 145 375
             Q 138 400 145 420
             Q 152 435 168 430
             Q 182 425 188 405
             Q 195 380 198 350
             Q 195 330 180 320 Z"/>

    <!-- Tail - flowing elegantly -->
    <path d="M 170 320
             Q 140 310 110 330
             Q 80 355 70 400
             Q 65 430 80 450
             Q 95 440 100 415
             Q 110 380 135 355
             Q 160 335 170 320 Z"/>
    <path d="M 170 330
             Q 150 345 130 380
             Q 115 410 120 445
             Q 135 435 140 410
             Q 150 375 170 350
             Q 175 340 170 330 Z"/>
  </g>
</svg>
